<svg version="1.1" xmlns="http://www.w3.org/2000/svg" xmlns:xlink="http://www.w3.org/1999/xlink" x="0px" y="0px" viewBox="0 0 510.9 88.9" enable-background="new 0 0 510.9 88.9" xml:space="preserve">
	<style>
	path {
		fill: #FCD578;
		fill-opacity: 0;
		stroke: #FCD578;
		stroke-width: 2;
		transition: fill-opacity 1s ease-out;
	}
	.finished path {
		fill: #FCD578;
		fill-opacity: 1;
		stroke: transparent;
	}
	</style>
	<path stroke-miterlimit="10" d="M44.1,87.9c-6.2,0-11.9-1.1-17.2-3.4
		c-5.3-2.2-9.8-5.3-13.7-9.2c-3.8-3.9-6.8-8.5-9-13.7C2.1,56.3,1,50.7,1,44.7v-0.2c0-6,1.1-11.6,3.2-16.9c2.2-5.2,5.2-9.8,9-13.8
		c3.8-4,8.4-7.1,13.8-9.4C32.4,2.1,38.3,1,44.8,1c3.9,0,7.5,0.3,10.7,1c3.2,0.6,6.2,1.5,8.8,2.6c2.6,1.1,5.1,2.5,7.3,4.1
		c2.2,1.6,4.3,3.4,6.2,5.3L66.2,27.5c-3.3-3-6.6-5.3-10-7c-3.4-1.7-7.2-2.5-11.5-2.5c-3.5,0-6.8,0.7-9.8,2c-3,1.4-5.6,3.2-7.7,5.6
		c-2.2,2.4-3.8,5.2-5,8.3c-1.2,3.2-1.8,6.5-1.8,10.1v0.2c0,3.6,0.6,7,1.8,10.2c1.2,3.2,2.9,6,5,8.4c2.1,2.4,4.7,4.3,7.7,5.7
		c3,1.4,6.3,2.1,9.9,2.1c4.8,0,8.9-0.9,12.2-2.6c3.3-1.8,6.6-4.2,9.9-7.2l11.8,11.9c-2.2,2.3-4.4,4.4-6.7,6.2
		c-2.3,1.8-4.9,3.4-7.6,4.7c-2.8,1.3-5.8,2.3-9.1,3C51.8,87.5,48.2,87.9,44.1,87.9z"/>
	<path stroke-miterlimit="10" d="M134.1,87.9c-6.5,0-12.4-1.1-17.9-3.4
		c-5.4-2.3-10.1-5.4-14.1-9.2c-4-3.9-7-8.4-9.2-13.7c-2.2-5.2-3.3-10.9-3.3-16.9v-0.2c0-6,1.1-11.6,3.4-16.9
		c2.2-5.2,5.3-9.8,9.3-13.8s8.7-7.1,14.2-9.4c5.5-2.3,11.5-3.4,17.9-3.4s12.4,1.1,17.9,3.4c5.4,2.3,10.1,5.4,14.1,9.2
		c4,3.9,7,8.4,9.2,13.7c2.2,5.2,3.3,10.9,3.3,16.9v0.2c0,6-1.1,11.6-3.4,16.9c-2.2,5.2-5.3,9.8-9.3,13.8s-8.7,7.1-14.2,9.4
		C146.5,86.7,140.6,87.9,134.1,87.9z M134.3,70.8c3.7,0,7.1-0.7,10.2-2c3.1-1.4,5.8-3.2,8-5.6c2.2-2.4,3.9-5.2,5.2-8.3
		c1.2-3.2,1.9-6.5,1.9-10.1v-0.2c0-3.6-0.6-7-1.9-10.2c-1.2-3.2-3-6-5.3-8.4c-2.3-2.4-5-4.3-8.1-5.7c-3.1-1.4-6.5-2.1-10.2-2.1
		c-3.8,0-7.2,0.7-10.3,2c-3.1,1.4-5.7,3.2-7.9,5.6c-2.2,2.4-3.9,5.2-5.2,8.3c-1.2,3.2-1.9,6.5-1.9,10.1v0.2c0,3.6,0.6,7,1.9,10.2
		c1.2,3.2,3,6,5.3,8.4c2.3,2.4,5,4.3,8,5.7C127.1,70.1,130.6,70.8,134.3,70.8z"/>
	<path stroke-miterlimit="10" d="M195.3,2.4h19.9L237.3,38l22.1-35.5h19.9v84H261
		V31.6l-23.6,35.9h-0.5L213.5,32v54.5h-18.2V2.4z"/>
	<path stroke-miterlimit="10" d="M300.3,2.4h18.5v84h-18.5V2.4z"/>
	<path stroke-miterlimit="10" d="M339.8,2.4h17l39.4,51.7V2.4h18.2v84h-15.7 L358,33v53.4h-18.2V2.4z"/>
	<path stroke-miterlimit="10" d="M475,87.9c-6.6,0-12.5-1.1-17.9-3.2
		c-5.4-2.2-10-5.2-13.9-9c-3.9-3.8-6.9-8.4-9.1-13.7c-2.2-5.3-3.2-11-3.2-17.3v-0.2c0-6,1.1-11.6,3.3-16.9c2.2-5.2,5.3-9.8,9.2-13.8
		c3.9-4,8.6-7.1,13.9-9.4c5.4-2.3,11.2-3.4,17.6-3.4c3.8,0,7.2,0.3,10.3,0.8c3.1,0.5,5.9,1.3,8.6,2.2c2.6,1,5.1,2.2,7.4,3.6
		c2.3,1.4,4.6,3.1,6.7,4.9l-11.6,14c-1.6-1.4-3.2-2.6-4.8-3.6c-1.6-1-3.3-1.9-5-2.6c-1.7-0.7-3.6-1.3-5.6-1.7
		c-2-0.4-4.2-0.6-6.6-0.6c-3.4,0-6.5,0.7-9.4,2.1c-2.9,1.4-5.5,3.3-7.7,5.7c-2.2,2.4-3.9,5.1-5.2,8.3c-1.2,3.2-1.9,6.6-1.9,10.2v0.2
		c0,3.8,0.6,7.4,1.9,10.6c1.2,3.2,3,6.1,5.3,8.5c2.3,2.4,5,4.3,8,5.6c3.1,1.3,6.5,2,10.3,2c6.9,0,12.7-1.7,17.4-5.1V54h-18.6v-16
		h36.5v36.5c-4.3,3.7-9.5,6.8-15.4,9.4C489.5,86.6,482.7,87.9,475,87.9z"/>
</svg>
