<svg version="1.1" xmlns="http://www.w3.org/2000/svg" xmlns:xlink="http://www.w3.org/1999/xlink" x="0px" y="0px" viewBox="0 0 366.5 91.4" enable-background="new 0 0 366.5 91.4" xml:space="preserve">
	<style>
	path {
		fill: #FCD578;
		fill-opacity: 0;
		stroke: #FCD578;
		stroke-width: 2;
	}
	.finished path {
		fill: #FCD578;
		fill-opacity: 1;
		transition: fill-opacity 1s ease-out;
	}
	</style>
	<path stroke-miterlimit="10" d="M38.4,88.2c-6.4,0-12.7-1.1-18.8-3.3
		c-6.2-2.2-11.8-5.6-16.8-10.1l10.9-13.1c3.8,3.1,7.8,5.6,11.8,7.4c4,1.8,8.5,2.8,13.3,2.8c3.8,0,6.8-0.7,8.9-2.1
		c2.1-1.4,3.2-3.3,3.2-5.8v-0.2c0-1.2-0.2-2.3-0.7-3.2c-0.4-0.9-1.3-1.8-2.5-2.6c-1.2-0.8-3-1.6-5.2-2.4c-2.2-0.8-5.1-1.6-8.6-2.5
		c-4.3-1-8.1-2.2-11.6-3.5c-3.5-1.3-6.4-2.9-8.8-4.7c-2.4-1.9-4.3-4.2-5.6-7C6.6,35,6,31.5,6,27.4v-0.2c0-3.8,0.7-7.3,2.1-10.4
		c1.4-3.1,3.4-5.7,6-8c2.6-2.2,5.7-4,9.3-5.2c3.6-1.2,7.5-1.8,11.9-1.8c6.2,0,11.8,0.9,17,2.8c5.2,1.8,9.9,4.5,14.2,7.9l-9.6,13.9
		c-3.8-2.6-7.4-4.6-11-6.1c-3.6-1.5-7.2-2.2-10.8-2.2c-3.6,0-6.3,0.7-8.1,2.1c-1.8,1.4-2.7,3.1-2.7,5.2v0.2c0,1.4,0.3,2.5,0.8,3.5
		c0.5,1,1.5,1.9,2.8,2.7c1.4,0.8,3.2,1.6,5.6,2.3c2.4,0.7,5.4,1.6,9,2.5c4.3,1.1,8,2.4,11.4,3.8c3.3,1.4,6.1,3.1,8.4,5
		c2.3,2,4,4.3,5.2,6.9c1.2,2.6,1.7,5.8,1.7,9.5v0.2c0,4.2-0.8,7.9-2.3,11.1c-1.5,3.2-3.6,6-6.3,8.2c-2.7,2.2-5.9,3.9-9.7,5
		C47.1,87.6,42.9,88.2,38.4,88.2z"/>
	<path stroke-miterlimit="10" d="M126,88.4c-6.5,0-12.4-1.1-17.9-3.4
		c-5.4-2.3-10.1-5.4-14.1-9.2c-4-3.9-7-8.4-9.2-13.7c-2.2-5.2-3.3-10.9-3.3-16.9V45c0-6,1.1-11.6,3.4-16.9c2.2-5.2,5.3-9.8,9.3-13.8
		c4-4,8.7-7.1,14.2-9.4c5.5-2.3,11.5-3.4,17.9-3.4c6.5,0,12.4,1.1,17.9,3.4c5.4,2.3,10.1,5.4,14.1,9.2c4,3.9,7,8.4,9.2,13.7
		c2.2,5.2,3.3,10.9,3.3,16.9V45c0,6-1.1,11.6-3.4,16.9c-2.2,5.2-5.3,9.8-9.3,13.8c-4,4-8.7,7.1-14.2,9.4
		C138.4,87.3,132.5,88.4,126,88.4z M126.2,71.4c3.7,0,7.1-0.7,10.2-2c3.1-1.4,5.8-3.2,8-5.6c2.2-2.4,3.9-5.2,5.2-8.3
		c1.2-3.2,1.9-6.5,1.9-10.1V45c0-3.6-0.6-7-1.9-10.2c-1.2-3.2-3-6-5.3-8.4c-2.3-2.4-5-4.3-8.1-5.7c-3.1-1.4-6.5-2.1-10.2-2.1
		c-3.8,0-7.2,0.7-10.3,2c-3.1,1.4-5.7,3.2-7.9,5.6c-2.2,2.4-3.9,5.2-5.2,8.3c-1.2,3.2-1.9,6.5-1.9,10.1V45c0,3.6,0.6,7,1.9,10.2
		c1.2,3.2,3,6,5.3,8.4c2.3,2.4,5,4.3,8,5.7C119,70.7,122.5,71.4,126.2,71.4z"/>
	<path stroke-miterlimit="10" d="M228,88.4c-6.5,0-12.4-1.1-17.9-3.4
		c-5.4-2.3-10.1-5.4-14.1-9.2c-4-3.9-7-8.4-9.2-13.7c-2.2-5.2-3.3-10.9-3.3-16.9V45c0-6,1.1-11.6,3.4-16.9c2.2-5.2,5.3-9.8,9.3-13.8
		c4-4,8.7-7.1,14.2-9.4c5.5-2.3,11.5-3.4,17.9-3.4c6.5,0,12.4,1.1,17.9,3.4c5.4,2.3,10.1,5.4,14.1,9.2c4,3.9,7,8.4,9.2,13.7
		c2.2,5.2,3.3,10.9,3.3,16.9V45c0,6-1.1,11.6-3.4,16.9c-2.2,5.2-5.3,9.8-9.3,13.8c-4,4-8.7,7.1-14.2,9.4
		C240.4,87.3,234.5,88.4,228,88.4z M228.2,71.4c3.7,0,7.1-0.7,10.2-2c3.1-1.4,5.8-3.2,8-5.6c2.2-2.4,3.9-5.2,5.2-8.3
		c1.2-3.2,1.9-6.5,1.9-10.1V45c0-3.6-0.6-7-1.9-10.2c-1.2-3.2-3-6-5.3-8.4c-2.3-2.4-5-4.3-8.1-5.7c-3.1-1.4-6.5-2.1-10.2-2.1
		c-3.8,0-7.2,0.7-10.3,2c-3.1,1.4-5.7,3.2-7.9,5.6c-2.2,2.4-3.9,5.2-5.2,8.3c-1.2,3.2-1.9,6.5-1.9,10.1V45c0,3.6,0.6,7,1.9,10.2
		c1.2,3.2,3,6,5.3,8.4c2.3,2.4,5,4.3,8,5.7C221,70.7,224.4,71.4,228.2,71.4z"/>
	<path stroke-miterlimit="10" d="M289.2,3h17l39.4,51.7V3h18.2v84h-15.7 l-40.7-53.4V87h-18.2V3z"/>
</svg>
